# Tiled2Unity generated file. Do not modify by hand.
# Wavefront file for 'onePerfectVillage_houise_mesh_0003.obj'

# Vertices (Count = 164)
v -5 -6 0
v -6 -6 0
v -6 -5 0
v -5 -5 0
v -6 -6 0
v -7 -6 0
v -7 -5 0
v -6 -5 0
v -7 -6 0
v -8 -6 0
v -8 -5 0
v -7 -5 0
v -8 -6 0
v -9 -6 0
v -9 -5 0
v -8 -5 0
v -9 -6 0
v -10 -6 0
v -10 -5 0
v -9 -5 0
v -10 -6 0
v -11 -6 0
v -11 -5 0
v -10 -5 0
v -11 -6 0
v -12 -6 0
v -12 -5 0
v -11 -5 0
v -13 -6 0
v -14 -6 0
v -14 -5 0
v -13 -5 0
v -14 -6 0
v -15 -6 0
v -15 -5 0
v -14 -5 0
v -5 -7 0
v -6 -7 0
v -6 -6 0
v -5 -6 0
v -6 -7 0
v -7 -7 0
v -7 -6 0
v -6 -6 0
v -7 -7 0
v -8 -7 0
v -8 -6 0
v -7 -6 0
v -8 -7 0
v -9 -7 0
v -9 -6 0
v -8 -6 0
v -9 -7 0
v -10 -7 0
v -10 -6 0
v -9 -6 0
v -10 -7 0
v -11 -7 0
v -11 -6 0
v -10 -6 0
v -11 -7 0
v -12 -7 0
v -12 -6 0
v -11 -6 0
v -13 -7 0
v -14 -7 0
v -14 -6 0
v -13 -6 0
v -14 -7 0
v -15 -7 0
v -15 -6 0
v -14 -6 0
v -7 -8 0
v -8 -8 0
v -8 -7 0
v -7 -7 0
v -8 -8 0
v -9 -8 0
v -9 -7 0
v -8 -7 0
v -13 -8 0
v -14 -8 0
v -14 -7 0
v -13 -7 0
v -4 -9 0
v -5 -9 0
v -5 -8 0
v -4 -8 0
v -5 -9 0
v -6 -9 0
v -6 -8 0
v -5 -8 0
v -13 -9 0
v -14 -9 0
v -14 -8 0
v -13 -8 0
v -4 -10 0
v -5 -10 0
v -5 -9 0
v -4 -9 0
v -5 -10 0
v -6 -10 0
v -6 -9 0
v -5 -9 0
v -7 -10 0
v -8 -10 0
v -8 -9 0
v -7 -9 0
v -13 -10 0
v -14 -10 0
v -14 -9 0
v -13 -9 0
v -14 -10 0
v -15 -10 0
v -15 -9 0
v -14 -9 0
v -4 -11 0
v -5 -11 0
v -5 -10 0
v -4 -10 0
v -5 -11 0
v -6 -11 0
v -6 -10 0
v -5 -10 0
v -11 -11 0
v -12 -11 0
v -12 -10 0
v -11 -10 0
v -13 -11 0
v -14 -11 0
v -14 -10 0
v -13 -10 0
v -14 -11 0
v -15 -11 0
v -15 -10 0
v -14 -10 0
v -11 -12 0
v -12 -12 0
v -12 -11 0
v -11 -11 0
v -13 -12 0
v -14 -12 0
v -14 -11 0
v -13 -11 0
v -14 -12 0
v -15 -12 0
v -15 -11 0
v -14 -11 0
v -8 -13 0
v -9 -13 0
v -9 -12 0
v -8 -12 0
v -11 -13 0
v -12 -13 0
v -12 -12 0
v -11 -12 0
v -8 -14 0
v -9 -14 0
v -9 -13 0
v -8 -13 0
v -11 -14 0
v -12 -14 0
v -12 -13 0
v -11 -13 0

# Texture cooridinates (Count = 70)
vt 0.2564103 0.7894737
vt 0.2820513 0.7894737
vt 0.2820513 0.8421053
vt 0.2564103 0.8421053
vt 0.3076923 0.7894737
vt 0.3076923 0.8421053
vt 0.2307692 0.5789474
vt 0.2564103 0.5789474
vt 0.2564103 0.6315789
vt 0.2307692 0.6315789
vt 0.2820513 0.5789474
vt 0.2820513 0.6315789
vt 0.4615385 0.7894737
vt 0.4871795 0.7894737
vt 0.4871795 0.8421053
vt 0.4615385 0.8421053
vt 0.2564103 0.7368421
vt 0.2820513 0.7368421
vt 0.3076923 0.7368421
vt 0.2307692 0.5263158
vt 0.2564103 0.5263158
vt 0.2820513 0.5263158
vt 0.4615385 0.7368421
vt 0.4871795 0.7368421
vt 0.2307692 0.4736842
vt 0.2564103 0.4736842
vt 0.2820513 0.4736842
vt 0.4358974 0.2631579
vt 0.4615385 0.2631579
vt 0.4615385 0.3157895
vt 0.4358974 0.3157895
vt 0.1282051 0.2631579
vt 0.1538462 0.2631579
vt 0.1538462 0.3157895
vt 0.1282051 0.3157895
vt 0.1794872 0.2631579
vt 0.1794872 0.3157895
vt 0.4358974 0.2105263
vt 0.4615385 0.2105263
vt 0.1282051 0.2105263
vt 0.1538462 0.2105263
vt 0.1794872 0.2105263
vt 0.3333333 0.6842105
vt 0.3589744 0.6842105
vt 0.3589744 0.7368421
vt 0.3333333 0.7368421
vt 0.1025641 0.4210526
vt 0.1282051 0.4210526
vt 0.1282051 0.4736842
vt 0.1025641 0.4736842
vt 0.1538462 0.4210526
vt 0.1538462 0.4736842
vt 0.1282051 0.1578947
vt 0.1538462 0.1578947
vt 0.1794872 0.1578947
vt 0.3589744 0.2631579
vt 0.3846154 0.2631579
vt 0.3846154 0.3157895
vt 0.3589744 0.3157895
vt 0.1025641 0.3684211
vt 0.1282051 0.3684211
vt 0.1538462 0.3684211
vt 0.3589744 0.2105263
vt 0.3846154 0.2105263
vt 0.1025641 0.3157895
vt 0.2051282 0.6842105
vt 0.2307692 0.6842105
vt 0.2307692 0.7368421
vt 0.2051282 0.7368421
vt 0.2051282 0.6315789

# Normal
vn 0 0 -1

# Mesh description
g onePerfectVillage_houise_mesh_0003

# Faces
f 1/1/1 2/2/1 3/3/1 4/4/1
f 5/2/1 6/5/1 7/6/1 8/3/1
f 9/7/1 10/8/1 11/9/1 12/10/1
f 13/8/1 14/11/1 15/12/1 16/9/1
f 17/1/1 18/2/1 19/3/1 20/4/1
f 21/2/1 22/5/1 23/6/1 24/3/1
f 25/13/1 26/14/1 27/15/1 28/16/1
f 29/1/1 30/2/1 31/3/1 32/4/1
f 33/2/1 34/5/1 35/6/1 36/3/1
f 37/17/1 38/18/1 39/2/1 40/1/1
f 41/18/1 42/19/1 43/5/1 44/2/1
f 45/20/1 46/21/1 47/8/1 48/7/1
f 49/21/1 50/22/1 51/11/1 52/8/1
f 53/17/1 54/18/1 55/2/1 56/1/1
f 57/18/1 58/19/1 59/5/1 60/2/1
f 61/23/1 62/24/1 63/14/1 64/13/1
f 65/17/1 66/18/1 67/2/1 68/1/1
f 69/18/1 70/19/1 71/5/1 72/2/1
f 73/25/1 74/26/1 75/21/1 76/20/1
f 77/26/1 78/27/1 79/22/1 80/21/1
f 81/28/1 82/29/1 83/30/1 84/31/1
f 85/32/1 86/33/1 87/34/1 88/35/1
f 89/33/1 90/36/1 91/37/1 92/34/1
f 93/38/1 94/39/1 95/29/1 96/28/1
f 97/40/1 98/41/1 99/33/1 100/32/1
f 101/41/1 102/42/1 103/36/1 104/33/1
f 105/43/1 106/44/1 107/45/1 108/46/1
f 109/47/1 110/48/1 111/49/1 112/50/1
f 113/48/1 114/51/1 115/52/1 116/49/1
f 117/53/1 118/54/1 119/41/1 120/40/1
f 121/54/1 122/55/1 123/42/1 124/41/1
f 125/56/1 126/57/1 127/58/1 128/59/1
f 129/60/1 130/61/1 131/48/1 132/47/1
f 133/61/1 134/62/1 135/51/1 136/48/1
f 137/63/1 138/64/1 139/57/1 140/56/1
f 141/65/1 142/35/1 143/61/1 144/60/1
f 145/35/1 146/34/1 147/62/1 148/61/1
f 149/66/1 150/67/1 151/68/1 152/69/1
f 153/66/1 154/67/1 155/68/1 156/69/1
f 157/70/1 158/10/1 159/67/1 160/66/1
f 161/70/1 162/10/1 163/67/1 164/66/1

