# Tiled2Unity generated file. Do not modify by hand.
# Wavefront file for 'testMap1_mesh_0006.obj'

# Vertices (Count = 216)
v -40 -40 0
v -41 -40 0
v -41 -39 0
v -40 -39 0
v -41 -40 0
v -42 -40 0
v -42 -39 0
v -41 -39 0
v -42 -40 0
v -43 -40 0
v -43 -39 0
v -42 -39 0
v -43 -40 0
v -44 -40 0
v -44 -39 0
v -43 -39 0
v -44 -40 0
v -45 -40 0
v -45 -39 0
v -44 -39 0
v -39 -41 0
v -40 -41 0
v -40 -40 0
v -39 -40 0
v -40 -41 0
v -41 -41 0
v -41 -40 0
v -40 -40 0
v -41 -41 0
v -42 -41 0
v -42 -40 0
v -41 -40 0
v -42 -41 0
v -43 -41 0
v -43 -40 0
v -42 -40 0
v -43 -41 0
v -44 -41 0
v -44 -40 0
v -43 -40 0
v -44 -41 0
v -45 -41 0
v -45 -40 0
v -44 -40 0
v -45 -41 0
v -46 -41 0
v -46 -40 0
v -45 -40 0
v -46 -41 0
v -47 -41 0
v -47 -40 0
v -46 -40 0
v -39 -42 0
v -40 -42 0
v -40 -41 0
v -39 -41 0
v -40 -42 0
v -41 -42 0
v -41 -41 0
v -40 -41 0
v -41 -42 0
v -42 -42 0
v -42 -41 0
v -41 -41 0
v -42 -42 0
v -43 -42 0
v -43 -41 0
v -42 -41 0
v -43 -42 0
v -44 -42 0
v -44 -41 0
v -43 -41 0
v -44 -42 0
v -45 -42 0
v -45 -41 0
v -44 -41 0
v -45 -42 0
v -46 -42 0
v -46 -41 0
v -45 -41 0
v -46 -42 0
v -47 -42 0
v -47 -41 0
v -46 -41 0
v -39 -43 0
v -40 -43 0
v -40 -42 0
v -39 -42 0
v -40 -43 0
v -41 -43 0
v -41 -42 0
v -40 -42 0
v -41 -43 0
v -42 -43 0
v -42 -42 0
v -41 -42 0
v -42 -43 0
v -43 -43 0
v -43 -42 0
v -42 -42 0
v -43 -43 0
v -44 -43 0
v -44 -42 0
v -43 -42 0
v -44 -43 0
v -45 -43 0
v -45 -42 0
v -44 -42 0
v -45 -43 0
v -46 -43 0
v -46 -42 0
v -45 -42 0
v -46 -43 0
v -47 -43 0
v -47 -42 0
v -46 -42 0
v -39 -44 0
v -40 -44 0
v -40 -43 0
v -39 -43 0
v -40 -44 0
v -41 -44 0
v -41 -43 0
v -40 -43 0
v -41 -44 0
v -42 -44 0
v -42 -43 0
v -41 -43 0
v -42 -44 0
v -43 -44 0
v -43 -43 0
v -42 -43 0
v -43 -44 0
v -44 -44 0
v -44 -43 0
v -43 -43 0
v -44 -44 0
v -45 -44 0
v -45 -43 0
v -44 -43 0
v -45 -44 0
v -46 -44 0
v -46 -43 0
v -45 -43 0
v -40 -45 0
v -41 -45 0
v -41 -44 0
v -40 -44 0
v -41 -45 0
v -42 -45 0
v -42 -44 0
v -41 -44 0
v -42 -45 0
v -43 -45 0
v -43 -44 0
v -42 -44 0
v -43 -45 0
v -44 -45 0
v -44 -44 0
v -43 -44 0
v -44 -45 0
v -45 -45 0
v -45 -44 0
v -44 -44 0
v -45 -45 0
v -46 -45 0
v -46 -44 0
v -45 -44 0
v -40 -46 0
v -41 -46 0
v -41 -45 0
v -40 -45 0
v -41 -46 0
v -42 -46 0
v -42 -45 0
v -41 -45 0
v -42 -46 0
v -43 -46 0
v -43 -45 0
v -42 -45 0
v -43 -46 0
v -44 -46 0
v -44 -45 0
v -43 -45 0
v -44 -46 0
v -45 -46 0
v -45 -45 0
v -44 -45 0
v -45 -46 0
v -46 -46 0
v -46 -45 0
v -45 -45 0
v -40 -47 0
v -41 -47 0
v -41 -46 0
v -40 -46 0
v -41 -47 0
v -42 -47 0
v -42 -46 0
v -41 -46 0
v -42 -47 0
v -43 -47 0
v -43 -46 0
v -42 -46 0
v -43 -47 0
v -44 -47 0
v -44 -46 0
v -43 -46 0
v -44 -47 0
v -45 -47 0
v -45 -46 0
v -44 -46 0
v -45 -47 0
v -46 -47 0
v -46 -46 0
v -45 -46 0

# Texture cooridinates (Count = 78)
vt 0 0.9021739
vt 0.125 0.9021739
vt 0.125 0.9130435
vt 0 0.9130435
vt 0.25 0.9021739
vt 0.25 0.9130435
vt 0.375 0.9021739
vt 0.375 0.9130435
vt 0.5 0.9021739
vt 0.5 0.9130435
vt 0.875 0.4782609
vt 1 0.4782609
vt 1 0.4891304
vt 0.875 0.4891304
vt 0.25 0.9782609
vt 0.375 0.9782609
vt 0.375 0.9891304
vt 0.25 0.9891304
vt 0 0.8913044
vt 0.125 0.8913044
vt 0.25 0.8913044
vt 0.375 0.8913044
vt 0.5 0.8913044
vt 0.875 0.4673913
vt 1 0.4673913
vt 0.75 0.9782609
vt 0.875 0.9782609
vt 0.875 0.9891304
vt 0.75 0.9891304
vt 1 0.9782609
vt 1 0.9891304
vt 0 0.8804348
vt 0.125 0.8804348
vt 0.25 0.8804348
vt 0.375 0.8804348
vt 0.5 0.8804348
vt 0.875 0.4565217
vt 1 0.4565217
vt 0.375 0.9673913
vt 0.5 0.9673913
vt 0.5 0.9782609
vt 0.625 0.9673913
vt 0.625 0.9782609
vt 0 0.8695652
vt 0.125 0.8695652
vt 0.25 0.8695652
vt 0.375 0.8695652
vt 0.5 0.8695652
vt 0.875 0.4456522
vt 1 0.4456522
vt 0.375 0.9565217
vt 0.5 0.9565217
vt 0.625 0.9565217
vt 0 0.8586956
vt 0.125 0.8586956
vt 0.25 0.8586956
vt 0.375 0.8586956
vt 0.5 0.8586956
vt 0.875 0.4347826
vt 1 0.4347826
vt 0.375 0.9456522
vt 0.5 0.9456522
vt 0.625 0.3913044
vt 0.75 0.3913044
vt 0.75 0.4021739
vt 0.625 0.4021739
vt 0.875 0.3913044
vt 0.875 0.4021739
vt 1 0.3913044
vt 1 0.4021739
vt 0.625 0.3804348
vt 0.75 0.3804348
vt 0.875 0.3804348
vt 1 0.3804348
vt 0.625 0.3695652
vt 0.75 0.3695652
vt 0.875 0.3695652
vt 1 0.3695652

# Normal
vn 0 0 -1

# Mesh description
g testMap1_mesh_0006

# Faces
f 1/1/1 2/2/1 3/3/1 4/4/1
f 5/2/1 6/5/1 7/6/1 8/3/1
f 9/5/1 10/7/1 11/8/1 12/6/1
f 13/7/1 14/9/1 15/10/1 16/8/1
f 17/11/1 18/12/1 19/13/1 20/14/1
f 21/15/1 22/16/1 23/17/1 24/18/1
f 25/19/1 26/20/1 27/2/1 28/1/1
f 29/20/1 30/21/1 31/5/1 32/2/1
f 33/21/1 34/22/1 35/7/1 36/5/1
f 37/22/1 38/23/1 39/9/1 40/7/1
f 41/24/1 42/25/1 43/12/1 44/11/1
f 45/26/1 46/27/1 47/28/1 48/29/1
f 49/27/1 50/30/1 51/31/1 52/28/1
f 53/15/1 54/16/1 55/17/1 56/18/1
f 57/32/1 58/33/1 59/20/1 60/19/1
f 61/33/1 62/34/1 63/21/1 64/20/1
f 65/34/1 66/35/1 67/22/1 68/21/1
f 69/35/1 70/36/1 71/23/1 72/22/1
f 73/37/1 74/38/1 75/25/1 76/24/1
f 77/39/1 78/40/1 79/41/1 80/16/1
f 81/40/1 82/42/1 83/43/1 84/41/1
f 85/15/1 86/16/1 87/17/1 88/18/1
f 89/44/1 90/45/1 91/33/1 92/32/1
f 93/45/1 94/46/1 95/34/1 96/33/1
f 97/46/1 98/47/1 99/35/1 100/34/1
f 101/47/1 102/48/1 103/36/1 104/35/1
f 105/49/1 106/50/1 107/38/1 108/37/1
f 109/51/1 110/52/1 111/40/1 112/39/1
f 113/52/1 114/53/1 115/42/1 116/40/1
f 117/15/1 118/16/1 119/17/1 120/18/1
f 121/54/1 122/55/1 123/45/1 124/44/1
f 125/55/1 126/56/1 127/46/1 128/45/1
f 129/56/1 130/57/1 131/47/1 132/46/1
f 133/57/1 134/58/1 135/48/1 136/47/1
f 137/59/1 138/60/1 139/50/1 140/49/1
f 141/61/1 142/62/1 143/52/1 144/51/1
f 145/63/1 146/64/1 147/65/1 148/66/1
f 149/64/1 150/67/1 151/68/1 152/65/1
f 153/63/1 154/64/1 155/65/1 156/66/1
f 157/64/1 158/67/1 159/68/1 160/65/1
f 161/67/1 162/69/1 163/70/1 164/68/1
f 165/67/1 166/69/1 167/70/1 168/68/1
f 169/71/1 170/72/1 171/64/1 172/63/1
f 173/72/1 174/73/1 175/67/1 176/64/1
f 177/71/1 178/72/1 179/64/1 180/63/1
f 181/72/1 182/73/1 183/67/1 184/64/1
f 185/73/1 186/74/1 187/69/1 188/67/1
f 189/73/1 190/74/1 191/69/1 192/67/1
f 193/75/1 194/76/1 195/72/1 196/71/1
f 197/76/1 198/77/1 199/73/1 200/72/1
f 201/75/1 202/76/1 203/72/1 204/71/1
f 205/76/1 206/77/1 207/73/1 208/72/1
f 209/77/1 210/78/1 211/74/1 212/73/1
f 213/77/1 214/78/1 215/74/1 216/73/1

