# Tiled2Unity generated file. Do not modify by hand.
# Wavefront file for 'testMap1_mesh_0003.obj'

# Vertices (Count = 404)
v -47 -37 0
v -48 -37 0
v -48 -36 0
v -47 -36 0
v -48 -37 0
v -49 -37 0
v -49 -36 0
v -48 -36 0
v -49 -37 0
v -50 -37 0
v -50 -36 0
v -49 -36 0
v -47 -38 0
v -48 -38 0
v -48 -37 0
v -47 -37 0
v -48 -38 0
v -49 -38 0
v -49 -37 0
v -48 -37 0
v -49 -38 0
v -50 -38 0
v -50 -37 0
v -49 -37 0
v -34 -39 0
v -35 -39 0
v -35 -38 0
v -34 -38 0
v -35 -39 0
v -36 -39 0
v -36 -38 0
v -35 -38 0
v -36 -39 0
v -37 -39 0
v -37 -38 0
v -36 -38 0
v -37 -39 0
v -38 -39 0
v -38 -38 0
v -37 -38 0
v -38 -39 0
v -39 -39 0
v -39 -38 0
v -38 -38 0
v -47 -39 0
v -48 -39 0
v -48 -38 0
v -47 -38 0
v -48 -39 0
v -49 -39 0
v -49 -38 0
v -48 -38 0
v -49 -39 0
v -50 -39 0
v -50 -38 0
v -49 -38 0
v -34 -40 0
v -35 -40 0
v -35 -39 0
v -34 -39 0
v -35 -40 0
v -36 -40 0
v -36 -39 0
v -35 -39 0
v -36 -40 0
v -37 -40 0
v -37 -39 0
v -36 -39 0
v -37 -40 0
v -38 -40 0
v -38 -39 0
v -37 -39 0
v -38 -40 0
v -39 -40 0
v -39 -39 0
v -38 -39 0
v -47 -40 0
v -48 -40 0
v -48 -39 0
v -47 -39 0
v -48 -40 0
v -49 -40 0
v -49 -39 0
v -48 -39 0
v -49 -40 0
v -50 -40 0
v -50 -39 0
v -49 -39 0
v -50 -40 0
v -51 -40 0
v -51 -39 0
v -50 -39 0
v -51 -40 0
v -52 -40 0
v -52 -39 0
v -51 -39 0
v -52 -40 0
v -53 -40 0
v -53 -39 0
v -52 -39 0
v -53 -40 0
v -54 -40 0
v -54 -39 0
v -53 -39 0
v -54 -40 0
v -55 -40 0
v -55 -39 0
v -54 -39 0
v -34 -41 0
v -35 -41 0
v -35 -40 0
v -34 -40 0
v -35 -41 0
v -36 -41 0
v -36 -40 0
v -35 -40 0
v -36 -41 0
v -37 -41 0
v -37 -40 0
v -36 -40 0
v -37 -41 0
v -38 -41 0
v -38 -40 0
v -37 -40 0
v -38 -41 0
v -39 -41 0
v -39 -40 0
v -38 -40 0
v -47 -41 0
v -48 -41 0
v -48 -40 0
v -47 -40 0
v -48 -41 0
v -49 -41 0
v -49 -40 0
v -48 -40 0
v -49 -41 0
v -50 -41 0
v -50 -40 0
v -49 -40 0
v -50 -41 0
v -51 -41 0
v -51 -40 0
v -50 -40 0
v -51 -41 0
v -52 -41 0
v -52 -40 0
v -51 -40 0
v -52 -41 0
v -53 -41 0
v -53 -40 0
v -52 -40 0
v -53 -41 0
v -54 -41 0
v -54 -40 0
v -53 -40 0
v -54 -41 0
v -55 -41 0
v -55 -40 0
v -54 -40 0
v -34 -42 0
v -35 -42 0
v -35 -41 0
v -34 -41 0
v -35 -42 0
v -36 -42 0
v -36 -41 0
v -35 -41 0
v -36 -42 0
v -37 -42 0
v -37 -41 0
v -36 -41 0
v -37 -42 0
v -38 -42 0
v -38 -41 0
v -37 -41 0
v -38 -42 0
v -39 -42 0
v -39 -41 0
v -38 -41 0
v -47 -42 0
v -48 -42 0
v -48 -41 0
v -47 -41 0
v -48 -42 0
v -49 -42 0
v -49 -41 0
v -48 -41 0
v -49 -42 0
v -50 -42 0
v -50 -41 0
v -49 -41 0
v -50 -42 0
v -51 -42 0
v -51 -41 0
v -50 -41 0
v -51 -42 0
v -52 -42 0
v -52 -41 0
v -51 -41 0
v -52 -42 0
v -53 -42 0
v -53 -41 0
v -52 -41 0
v -53 -42 0
v -54 -42 0
v -54 -41 0
v -53 -41 0
v -54 -42 0
v -55 -42 0
v -55 -41 0
v -54 -41 0
v -34 -43 0
v -35 -43 0
v -35 -42 0
v -34 -42 0
v -35 -43 0
v -36 -43 0
v -36 -42 0
v -35 -42 0
v -36 -43 0
v -37 -43 0
v -37 -42 0
v -36 -42 0
v -37 -43 0
v -38 -43 0
v -38 -42 0
v -37 -42 0
v -38 -43 0
v -39 -43 0
v -39 -42 0
v -38 -42 0
v -47 -43 0
v -48 -43 0
v -48 -42 0
v -47 -42 0
v -48 -43 0
v -49 -43 0
v -49 -42 0
v -48 -42 0
v -49 -43 0
v -50 -43 0
v -50 -42 0
v -49 -42 0
v -50 -43 0
v -51 -43 0
v -51 -42 0
v -50 -42 0
v -51 -43 0
v -52 -43 0
v -52 -42 0
v -51 -42 0
v -52 -43 0
v -53 -43 0
v -53 -42 0
v -52 -42 0
v -53 -43 0
v -54 -43 0
v -54 -42 0
v -53 -42 0
v -54 -43 0
v -55 -43 0
v -55 -42 0
v -54 -42 0
v -34 -44 0
v -35 -44 0
v -35 -43 0
v -34 -43 0
v -35 -44 0
v -36 -44 0
v -36 -43 0
v -35 -43 0
v -36 -44 0
v -37 -44 0
v -37 -43 0
v -36 -43 0
v -37 -44 0
v -38 -44 0
v -38 -43 0
v -37 -43 0
v -38 -44 0
v -39 -44 0
v -39 -43 0
v -38 -43 0
v -48 -44 0
v -49 -44 0
v -49 -43 0
v -48 -43 0
v -49 -44 0
v -50 -44 0
v -50 -43 0
v -49 -43 0
v -50 -44 0
v -51 -44 0
v -51 -43 0
v -50 -43 0
v -51 -44 0
v -52 -44 0
v -52 -43 0
v -51 -43 0
v -52 -44 0
v -53 -44 0
v -53 -43 0
v -52 -43 0
v -53 -44 0
v -54 -44 0
v -54 -43 0
v -53 -43 0
v -54 -44 0
v -55 -44 0
v -55 -43 0
v -54 -43 0
v -34 -45 0
v -35 -45 0
v -35 -44 0
v -34 -44 0
v -35 -45 0
v -36 -45 0
v -36 -44 0
v -35 -44 0
v -36 -45 0
v -37 -45 0
v -37 -44 0
v -36 -44 0
v -37 -45 0
v -38 -45 0
v -38 -44 0
v -37 -44 0
v -50 -45 0
v -51 -45 0
v -51 -44 0
v -50 -44 0
v -51 -45 0
v -52 -45 0
v -52 -44 0
v -51 -44 0
v -52 -45 0
v -53 -45 0
v -53 -44 0
v -52 -44 0
v -53 -45 0
v -54 -45 0
v -54 -44 0
v -53 -44 0
v -54 -45 0
v -55 -45 0
v -55 -44 0
v -54 -44 0
v -34 -46 0
v -35 -46 0
v -35 -45 0
v -34 -45 0
v -35 -46 0
v -36 -46 0
v -36 -45 0
v -35 -45 0
v -36 -46 0
v -37 -46 0
v -37 -45 0
v -36 -45 0
v -37 -46 0
v -38 -46 0
v -38 -45 0
v -37 -45 0
v -50 -46 0
v -51 -46 0
v -51 -45 0
v -50 -45 0
v -51 -46 0
v -52 -46 0
v -52 -45 0
v -51 -45 0
v -52 -46 0
v -53 -46 0
v -53 -45 0
v -52 -45 0
v -53 -46 0
v -54 -46 0
v -54 -45 0
v -53 -45 0
v -54 -46 0
v -55 -46 0
v -55 -45 0
v -54 -45 0
v -34 -47 0
v -35 -47 0
v -35 -46 0
v -34 -46 0
v -35 -47 0
v -36 -47 0
v -36 -46 0
v -35 -46 0
v -36 -47 0
v -37 -47 0
v -37 -46 0
v -36 -46 0
v -37 -47 0
v -38 -47 0
v -38 -46 0
v -37 -46 0
v -38 -47 0
v -39 -47 0
v -39 -46 0
v -38 -46 0

# Texture cooridinates (Count = 123)
vt 0.007142857 0.9866667
vt 0.01428571 0.9866667
vt 0.01428571 0.9933333
vt 0.007142857 0.9933333
vt 0.02142857 0.9866667
vt 0.02142857 0.9933333
vt 0.02857143 0.9866667
vt 0.02857143 0.9933333
vt 0.007142857 0.98
vt 0.01428571 0.98
vt 0.02142857 0.98
vt 0.02857143 0.98
vt 0.2928571 0.54
vt 0.3 0.54
vt 0.3 0.5466666
vt 0.2928571 0.5466666
vt 0.3071429 0.54
vt 0.3071429 0.5466666
vt 0.3142857 0.54
vt 0.3142857 0.5466666
vt 0.3214286 0.54
vt 0.3214286 0.5466666
vt 0.3285714 0.54
vt 0.3285714 0.5466666
vt 0.01428571 1
vt 0.007142857 1
vt 0.02142857 1
vt 0.02857143 1
vt 0.2928571 0.5333333
vt 0.3 0.5333333
vt 0.3071429 0.5333333
vt 0.3142857 0.5333333
vt 0.3214286 0.5333333
vt 0.3285714 0.5333333
vt 0.4142857 0.5333333
vt 0.4214286 0.5333333
vt 0.4214286 0.54
vt 0.4142857 0.54
vt 0.4285714 0.5333333
vt 0.4285714 0.54
vt 0.4357143 0.5333333
vt 0.4357143 0.54
vt 0.4428571 0.5333333
vt 0.4428571 0.54
vt 0.45 0.5333333
vt 0.45 0.54
vt 0.2928571 0.5266666
vt 0.3 0.5266666
vt 0.3071429 0.5266666
vt 0.3142857 0.5266666
vt 0.3214286 0.5266666
vt 0.3285714 0.5266666
vt 0.4142857 0.5266666
vt 0.4214286 0.5266666
vt 0.4285714 0.5266666
vt 0.4357143 0.5266666
vt 0.4428571 0.5266666
vt 0.45 0.5266666
vt 0.2928571 0.52
vt 0.3 0.52
vt 0.3071429 0.52
vt 0.3142857 0.52
vt 0.3214286 0.52
vt 0.3285714 0.52
vt 0.4142857 0.52
vt 0.4214286 0.52
vt 0.4285714 0.52
vt 0.4357143 0.52
vt 0.4428571 0.52
vt 0.45 0.52
vt 0.2928571 0.5133333
vt 0.3 0.5133333
vt 0.3071429 0.5133333
vt 0.3142857 0.5133333
vt 0.3214286 0.5133333
vt 0.3285714 0.5133333
vt 0.4142857 0.5133333
vt 0.4214286 0.5133333
vt 0.4285714 0.5133333
vt 0.4357143 0.5133333
vt 0.4428571 0.5133333
vt 0.45 0.5133333
vt 0.2928571 0.5066667
vt 0.3 0.5066667
vt 0.3071429 0.5066667
vt 0.3142857 0.5066667
vt 0.3214286 0.5066667
vt 0.3285714 0.5066667
vt 0.4142857 0.5066667
vt 0.4214286 0.5066667
vt 0.4285714 0.5066667
vt 0.4357143 0.5066667
vt 0.4428571 0.5066667
vt 0.45 0.5066667
vt 0.2928571 0.5
vt 0.3 0.5
vt 0.3071429 0.5
vt 0.3142857 0.5
vt 0.3214286 0.5
vt 0.4142857 0.5
vt 0.4214286 0.5
vt 0.4285714 0.5
vt 0.4357143 0.5
vt 0.4428571 0.5
vt 0.45 0.5
vt 0.2928571 0.4933333
vt 0.3 0.4933333
vt 0.3071429 0.4933333
vt 0.3142857 0.4933333
vt 0.3214286 0.4933333
vt 0.4142857 0.4933333
vt 0.4214286 0.4933333
vt 0.4285714 0.4933333
vt 0.4357143 0.4933333
vt 0.4428571 0.4933333
vt 0.45 0.4933333
vt 0.2928571 0.4866667
vt 0.3 0.4866667
vt 0.3071429 0.4866667
vt 0.3142857 0.4866667
vt 0.3214286 0.4866667
vt 0.3285714 0.4866667
vt 0.3285714 0.4933333

# Normal
vn 0 0 -1

# Mesh description
g testMap1_mesh_0003

# Faces
f 1/1/1 2/2/1 3/3/1 4/4/1
f 5/2/1 6/5/1 7/6/1 8/3/1
f 9/5/1 10/7/1 11/8/1 12/6/1
f 13/9/1 14/10/1 15/2/1 16/1/1
f 17/10/1 18/11/1 19/5/1 20/2/1
f 21/11/1 22/12/1 23/7/1 24/5/1
f 25/13/1 26/14/1 27/15/1 28/16/1
f 29/14/1 30/17/1 31/18/1 32/15/1
f 33/17/1 34/19/1 35/20/1 36/18/1
f 37/19/1 38/21/1 39/22/1 40/20/1
f 41/21/1 42/23/1 43/24/1 44/22/1
f 45/4/1 46/3/1 47/25/1 48/26/1
f 49/3/1 50/6/1 51/27/1 52/25/1
f 53/6/1 54/8/1 55/28/1 56/27/1
f 57/29/1 58/30/1 59/14/1 60/13/1
f 61/30/1 62/31/1 63/17/1 64/14/1
f 65/31/1 66/32/1 67/19/1 68/17/1
f 69/32/1 70/33/1 71/21/1 72/19/1
f 73/33/1 74/34/1 75/23/1 76/21/1
f 77/1/1 78/2/1 79/3/1 80/4/1
f 81/2/1 82/5/1 83/6/1 84/3/1
f 85/5/1 86/7/1 87/8/1 88/6/1
f 89/35/1 90/36/1 91/37/1 92/38/1
f 93/36/1 94/39/1 95/40/1 96/37/1
f 97/39/1 98/41/1 99/42/1 100/40/1
f 101/41/1 102/43/1 103/44/1 104/42/1
f 105/43/1 106/45/1 107/46/1 108/44/1
f 109/47/1 110/48/1 111/30/1 112/29/1
f 113/48/1 114/49/1 115/31/1 116/30/1
f 117/49/1 118/50/1 119/32/1 120/31/1
f 121/50/1 122/51/1 123/33/1 124/32/1
f 125/51/1 126/52/1 127/34/1 128/33/1
f 129/9/1 130/10/1 131/2/1 132/1/1
f 133/10/1 134/11/1 135/5/1 136/2/1
f 137/11/1 138/12/1 139/7/1 140/5/1
f 141/53/1 142/54/1 143/36/1 144/35/1
f 145/54/1 146/55/1 147/39/1 148/36/1
f 149/55/1 150/56/1 151/41/1 152/39/1
f 153/56/1 154/57/1 155/43/1 156/41/1
f 157/57/1 158/58/1 159/45/1 160/43/1
f 161/59/1 162/60/1 163/48/1 164/47/1
f 165/60/1 166/61/1 167/49/1 168/48/1
f 169/61/1 170/62/1 171/50/1 172/49/1
f 173/62/1 174/63/1 175/51/1 176/50/1
f 177/63/1 178/64/1 179/52/1 180/51/1
f 181/4/1 182/3/1 183/25/1 184/26/1
f 185/3/1 186/6/1 187/27/1 188/25/1
f 189/6/1 190/8/1 191/28/1 192/27/1
f 193/65/1 194/66/1 195/54/1 196/53/1
f 197/66/1 198/67/1 199/55/1 200/54/1
f 201/67/1 202/68/1 203/56/1 204/55/1
f 205/68/1 206/69/1 207/57/1 208/56/1
f 209/69/1 210/70/1 211/58/1 212/57/1
f 213/71/1 214/72/1 215/60/1 216/59/1
f 217/72/1 218/73/1 219/61/1 220/60/1
f 221/73/1 222/74/1 223/62/1 224/61/1
f 225/74/1 226/75/1 227/63/1 228/62/1
f 229/75/1 230/76/1 231/64/1 232/63/1
f 233/1/1 234/2/1 235/3/1 236/4/1
f 237/2/1 238/5/1 239/6/1 240/3/1
f 241/5/1 242/7/1 243/8/1 244/6/1
f 245/77/1 246/78/1 247/66/1 248/65/1
f 249/78/1 250/79/1 251/67/1 252/66/1
f 253/79/1 254/80/1 255/68/1 256/67/1
f 257/80/1 258/81/1 259/69/1 260/68/1
f 261/81/1 262/82/1 263/70/1 264/69/1
f 265/83/1 266/84/1 267/72/1 268/71/1
f 269/84/1 270/85/1 271/73/1 272/72/1
f 273/85/1 274/86/1 275/74/1 276/73/1
f 277/86/1 278/87/1 279/75/1 280/74/1
f 281/87/1 282/88/1 283/76/1 284/75/1
f 285/10/1 286/11/1 287/5/1 288/2/1
f 289/11/1 290/12/1 291/7/1 292/5/1
f 293/89/1 294/90/1 295/78/1 296/77/1
f 297/90/1 298/91/1 299/79/1 300/78/1
f 301/91/1 302/92/1 303/80/1 304/79/1
f 305/92/1 306/93/1 307/81/1 308/80/1
f 309/93/1 310/94/1 311/82/1 312/81/1
f 313/95/1 314/96/1 315/84/1 316/83/1
f 317/96/1 318/97/1 319/85/1 320/84/1
f 321/97/1 322/98/1 323/86/1 324/85/1
f 325/98/1 326/99/1 327/87/1 328/86/1
f 329/100/1 330/101/1 331/90/1 332/89/1
f 333/101/1 334/102/1 335/91/1 336/90/1
f 337/102/1 338/103/1 339/92/1 340/91/1
f 341/103/1 342/104/1 343/93/1 344/92/1
f 345/104/1 346/105/1 347/94/1 348/93/1
f 349/106/1 350/107/1 351/96/1 352/95/1
f 353/107/1 354/108/1 355/97/1 356/96/1
f 357/108/1 358/109/1 359/98/1 360/97/1
f 361/109/1 362/110/1 363/99/1 364/98/1
f 365/111/1 366/112/1 367/101/1 368/100/1
f 369/112/1 370/113/1 371/102/1 372/101/1
f 373/113/1 374/114/1 375/103/1 376/102/1
f 377/114/1 378/115/1 379/104/1 380/103/1
f 381/115/1 382/116/1 383/105/1 384/104/1
f 385/117/1 386/118/1 387/107/1 388/106/1
f 389/118/1 390/119/1 391/108/1 392/107/1
f 393/119/1 394/120/1 395/109/1 396/108/1
f 397/120/1 398/121/1 399/110/1 400/109/1
f 401/121/1 402/122/1 403/123/1 404/110/1

