# Tiled2Unity generated file. Do not modify by hand.
# Wavefront file for 'secondForest_mesh_0005.obj'

# Vertices (Count = 112)
v -31 -10 0
v -32 -10 0
v -32 -9 0
v -31 -9 0
v -32 -10 0
v -33 -10 0
v -33 -9 0
v -32 -9 0
v -33 -10 0
v -34 -10 0
v -34 -9 0
v -33 -9 0
v -34 -10 0
v -35 -10 0
v -35 -9 0
v -34 -9 0
v -27 -13 0
v -28 -13 0
v -28 -12 0
v -27 -12 0
v -28 -13 0
v -29 -13 0
v -29 -12 0
v -28 -12 0
v -35 -15 0
v -36 -15 0
v -36 -14 0
v -35 -14 0
v -32 -16 0
v -33 -16 0
v -33 -15 0
v -32 -15 0
v -35 -16 0
v -36 -16 0
v -36 -15 0
v -35 -15 0
v -35 -19 0
v -36 -19 0
v -36 -18 0
v -35 -18 0
v -32 -20 0
v -33 -20 0
v -33 -19 0
v -32 -19 0
v -33 -20 0
v -34 -20 0
v -34 -19 0
v -33 -19 0
v -54 -44 0
v -55 -44 0
v -55 -43 0
v -54 -43 0
v -57 -44 0
v -58 -44 0
v -58 -43 0
v -57 -43 0
v -58 -44 0
v -59 -44 0
v -59 -43 0
v -58 -43 0
v -47 -45 0
v -48 -45 0
v -48 -44 0
v -47 -44 0
v -48 -45 0
v -49 -45 0
v -49 -44 0
v -48 -44 0
v -49 -45 0
v -50 -45 0
v -50 -44 0
v -49 -44 0
v -50 -45 0
v -51 -45 0
v -51 -44 0
v -50 -44 0
v -55 -45 0
v -56 -45 0
v -56 -44 0
v -55 -44 0
v -48 -46 0
v -49 -46 0
v -49 -45 0
v -48 -45 0
v -62 -47 0
v -63 -47 0
v -63 -46 0
v -62 -46 0
v -63 -47 0
v -64 -47 0
v -64 -46 0
v -63 -46 0
v -60 -48 0
v -61 -48 0
v -61 -47 0
v -60 -47 0
v -52 -52 0
v -53 -52 0
v -53 -51 0
v -52 -51 0
v -53 -52 0
v -54 -52 0
v -54 -51 0
v -53 -51 0
v -52 -53 0
v -53 -53 0
v -53 -52 0
v -52 -52 0
v -53 -53 0
v -54 -53 0
v -54 -52 0
v -53 -52 0

# Texture cooridinates (Count = 20)
vt 0.5882353 0.9130435
vt 0.5955882 0.9130435
vt 0.5955882 0.9275362
vt 0.5882353 0.9275362
vt 0.9264706 0.7971014
vt 0.9338235 0.7971014
vt 0.9338235 0.8115942
vt 0.9264706 0.8115942
vt 0.8970588 0.7681159
vt 0.9044118 0.7681159
vt 0.9044118 0.7826087
vt 0.8970588 0.7826087
vt 0.9117647 0.7681159
vt 0.9117647 0.7826087
vt 0.1029412 0.8550725
vt 0.1102941 0.8550725
vt 0.1102941 0.8695652
vt 0.1029412 0.8695652
vt 0.1176471 0.8550725
vt 0.1176471 0.8695652

# Normal
vn 0 0 -1

# Mesh description
g secondForest_mesh_0005

# Faces
f 1/1/1 2/2/1 3/3/1 4/4/1
f 5/1/1 6/2/1 7/3/1 8/4/1
f 9/1/1 10/2/1 11/3/1 12/4/1
f 13/1/1 14/2/1 15/3/1 16/4/1
f 17/1/1 18/2/1 19/3/1 20/4/1
f 21/1/1 22/2/1 23/3/1 24/4/1
f 25/1/1 26/2/1 27/3/1 28/4/1
f 29/1/1 30/2/1 31/3/1 32/4/1
f 33/1/1 34/2/1 35/3/1 36/4/1
f 37/1/1 38/2/1 39/3/1 40/4/1
f 41/1/1 42/2/1 43/3/1 44/4/1
f 45/1/1 46/2/1 47/3/1 48/4/1
f 49/5/1 50/6/1 51/7/1 52/8/1
f 53/5/1 54/6/1 55/7/1 56/8/1
f 57/5/1 58/6/1 59/7/1 60/8/1
f 61/9/1 62/10/1 63/11/1 64/12/1
f 65/10/1 66/13/1 67/14/1 68/11/1
f 69/5/1 70/6/1 71/7/1 72/8/1
f 73/5/1 74/6/1 75/7/1 76/8/1
f 77/5/1 78/6/1 79/7/1 80/8/1
f 81/5/1 82/6/1 83/7/1 84/8/1
f 85/5/1 86/6/1 87/7/1 88/8/1
f 89/5/1 90/6/1 91/7/1 92/8/1
f 93/5/1 94/6/1 95/7/1 96/8/1
f 97/15/1 98/16/1 99/17/1 100/18/1
f 101/16/1 102/19/1 103/20/1 104/17/1
f 105/15/1 106/16/1 107/17/1 108/18/1
f 109/16/1 110/19/1 111/20/1 112/17/1

