# Tiled2Unity generated file. Do not modify by hand.
# Wavefront file for 'secondForest_mesh_0020.obj'

# Vertices (Count = 72)
v -55 -14 0
v -56 -14 0
v -56 -13 0
v -55 -13 0
v -56 -14 0
v -57 -14 0
v -57 -13 0
v -56 -13 0
v -57 -14 0
v -58 -14 0
v -58 -13 0
v -57 -13 0
v -55 -15 0
v -56 -15 0
v -56 -14 0
v -55 -14 0
v -56 -15 0
v -57 -15 0
v -57 -14 0
v -56 -14 0
v -57 -15 0
v -58 -15 0
v -58 -14 0
v -57 -14 0
v -55 -16 0
v -56 -16 0
v -56 -15 0
v -55 -15 0
v -56 -16 0
v -57 -16 0
v -57 -15 0
v -56 -15 0
v -57 -16 0
v -58 -16 0
v -58 -15 0
v -57 -15 0
v -38 -18 0
v -39 -18 0
v -39 -17 0
v -38 -17 0
v -39 -18 0
v -40 -18 0
v -40 -17 0
v -39 -17 0
v -40 -18 0
v -41 -18 0
v -41 -17 0
v -40 -17 0
v -38 -19 0
v -39 -19 0
v -39 -18 0
v -38 -18 0
v -39 -19 0
v -40 -19 0
v -40 -18 0
v -39 -18 0
v -40 -19 0
v -41 -19 0
v -41 -18 0
v -40 -18 0
v -38 -20 0
v -39 -20 0
v -39 -19 0
v -38 -19 0
v -39 -20 0
v -40 -20 0
v -40 -19 0
v -39 -19 0
v -40 -20 0
v -41 -20 0
v -41 -19 0
v -40 -19 0

# Texture cooridinates (Count = 32)
vt 0.02857143 0.9933333
vt 0.03571429 0.9933333
vt 0.03571429 1
vt 0.02857143 1
vt 0.04285714 0.9933333
vt 0.04285714 1
vt 0.05 0.9933333
vt 0.05 1
vt 0.02857143 0.9866667
vt 0.03571429 0.9866667
vt 0.04285714 0.9866667
vt 0.05 0.9866667
vt 0.02857143 0.98
vt 0.03571429 0.98
vt 0.04285714 0.98
vt 0.05 0.98
vt 0.07142857 0.9933333
vt 0.07857143 0.9933333
vt 0.07857143 1
vt 0.07142857 1
vt 0.08571429 0.9933333
vt 0.08571429 1
vt 0.09285714 0.9933333
vt 0.09285714 1
vt 0.07142857 0.9866667
vt 0.07857143 0.9866667
vt 0.08571429 0.9866667
vt 0.09285714 0.9866667
vt 0.07142857 0.98
vt 0.07857143 0.98
vt 0.08571429 0.98
vt 0.09285714 0.98

# Normal
vn 0 0 -1

# Mesh description
g secondForest_mesh_0020

# Faces
f 1/1/1 2/2/1 3/3/1 4/4/1
f 5/2/1 6/5/1 7/6/1 8/3/1
f 9/5/1 10/7/1 11/8/1 12/6/1
f 13/9/1 14/10/1 15/2/1 16/1/1
f 17/10/1 18/11/1 19/5/1 20/2/1
f 21/11/1 22/12/1 23/7/1 24/5/1
f 25/13/1 26/14/1 27/10/1 28/9/1
f 29/14/1 30/15/1 31/11/1 32/10/1
f 33/15/1 34/16/1 35/12/1 36/11/1
f 37/17/1 38/18/1 39/19/1 40/20/1
f 41/18/1 42/21/1 43/22/1 44/19/1
f 45/21/1 46/23/1 47/24/1 48/22/1
f 49/25/1 50/26/1 51/18/1 52/17/1
f 53/26/1 54/27/1 55/21/1 56/18/1
f 57/27/1 58/28/1 59/23/1 60/21/1
f 61/29/1 62/30/1 63/26/1 64/25/1
f 65/30/1 66/31/1 67/27/1 68/26/1
f 69/31/1 70/32/1 71/28/1 72/27/1

