# Tiled2Unity generated file. Do not modify by hand.
# Wavefront file for 'secondForest_mesh_0007.obj'

# Vertices (Count = 48)
v -53 -29 0
v -54 -29 0
v -54 -28 0
v -53 -28 0
v -57 -29 0
v -58 -29 0
v -58 -28 0
v -57 -28 0
v -53 -30 0
v -54 -30 0
v -54 -29 0
v -53 -29 0
v -57 -30 0
v -58 -30 0
v -58 -29 0
v -57 -29 0
v -53 -31 0
v -54 -31 0
v -54 -30 0
v -53 -30 0
v -57 -31 0
v -58 -31 0
v -58 -30 0
v -57 -30 0
v -53 -32 0
v -54 -32 0
v -54 -31 0
v -53 -31 0
v -57 -32 0
v -58 -32 0
v -58 -31 0
v -57 -31 0
v -53 -33 0
v -54 -33 0
v -54 -32 0
v -53 -32 0
v -57 -33 0
v -58 -33 0
v -58 -32 0
v -57 -32 0
v -53 -34 0
v -54 -34 0
v -54 -33 0
v -53 -33 0
v -57 -34 0
v -58 -34 0
v -58 -33 0
v -57 -33 0

# Texture cooridinates (Count = 6)
vt 0.5 0.9130435
vt 0.5073529 0.9130435
vt 0.5073529 0.9275362
vt 0.5 0.9275362
vt 0.5 0.8985507
vt 0.5073529 0.8985507

# Normal
vn 0 0 -1

# Mesh description
g secondForest_mesh_0007

# Faces
f 1/1/1 2/2/1 3/3/1 4/4/1
f 5/1/1 6/2/1 7/3/1 8/4/1
f 9/5/1 10/6/1 11/2/1 12/1/1
f 13/5/1 14/6/1 15/2/1 16/1/1
f 17/1/1 18/2/1 19/3/1 20/4/1
f 21/1/1 22/2/1 23/3/1 24/4/1
f 25/5/1 26/6/1 27/2/1 28/1/1
f 29/5/1 30/6/1 31/2/1 32/1/1
f 33/1/1 34/2/1 35/3/1 36/4/1
f 37/1/1 38/2/1 39/3/1 40/4/1
f 41/5/1 42/6/1 43/2/1 44/1/1
f 45/5/1 46/6/1 47/2/1 48/1/1

