# Tiled2Unity generated file. Do not modify by hand.
# Wavefront file for 'onePerfectVillage_mesh_0007.obj'

# Vertices (Count = 244)
v -26 -7 0
v -27 -7 0
v -27 -6 0
v -26 -6 0
v -28 -7 0
v -29 -7 0
v -29 -6 0
v -28 -6 0
v -29 -7 0
v -30 -7 0
v -30 -6 0
v -29 -6 0
v -30 -7 0
v -31 -7 0
v -31 -6 0
v -30 -6 0
v -26 -8 0
v -27 -8 0
v -27 -7 0
v -26 -7 0
v -27 -8 0
v -28 -8 0
v -28 -7 0
v -27 -7 0
v -28 -8 0
v -29 -8 0
v -29 -7 0
v -28 -7 0
v -29 -8 0
v -30 -8 0
v -30 -7 0
v -29 -7 0
v -30 -8 0
v -31 -8 0
v -31 -7 0
v -30 -7 0
v -31 -8 0
v -32 -8 0
v -32 -7 0
v -31 -7 0
v -26 -9 0
v -27 -9 0
v -27 -8 0
v -26 -8 0
v -27 -9 0
v -28 -9 0
v -28 -8 0
v -27 -8 0
v -28 -9 0
v -29 -9 0
v -29 -8 0
v -28 -8 0
v -29 -9 0
v -30 -9 0
v -30 -8 0
v -29 -8 0
v -30 -9 0
v -31 -9 0
v -31 -8 0
v -30 -8 0
v -31 -9 0
v -32 -9 0
v -32 -8 0
v -31 -8 0
v -26 -10 0
v -27 -10 0
v -27 -9 0
v -26 -9 0
v -27 -10 0
v -28 -10 0
v -28 -9 0
v -27 -9 0
v -31 -10 0
v -32 -10 0
v -32 -9 0
v -31 -9 0
v -26 -11 0
v -27 -11 0
v -27 -10 0
v -26 -10 0
v -27 -11 0
v -28 -11 0
v -28 -10 0
v -27 -10 0
v -28 -11 0
v -29 -11 0
v -29 -10 0
v -28 -10 0
v -29 -11 0
v -30 -11 0
v -30 -10 0
v -29 -10 0
v -30 -11 0
v -31 -11 0
v -31 -10 0
v -30 -10 0
v -31 -11 0
v -32 -11 0
v -32 -10 0
v -31 -10 0
v -39 -32 0
v -40 -32 0
v -40 -31 0
v -39 -31 0
v -40 -32 0
v -41 -32 0
v -41 -31 0
v -40 -31 0
v -41 -32 0
v -42 -32 0
v -42 -31 0
v -41 -31 0
v -42 -32 0
v -43 -32 0
v -43 -31 0
v -42 -31 0
v -43 -32 0
v -44 -32 0
v -44 -31 0
v -43 -31 0
v -44 -32 0
v -45 -32 0
v -45 -31 0
v -44 -31 0
v -45 -32 0
v -46 -32 0
v -46 -31 0
v -45 -31 0
v -46 -32 0
v -47 -32 0
v -47 -31 0
v -46 -31 0
v -39 -33 0
v -40 -33 0
v -40 -32 0
v -39 -32 0
v -40 -33 0
v -41 -33 0
v -41 -32 0
v -40 -32 0
v -41 -33 0
v -42 -33 0
v -42 -32 0
v -41 -32 0
v -42 -33 0
v -43 -33 0
v -43 -32 0
v -42 -32 0
v -43 -33 0
v -44 -33 0
v -44 -32 0
v -43 -32 0
v -44 -33 0
v -45 -33 0
v -45 -32 0
v -44 -32 0
v -45 -33 0
v -46 -33 0
v -46 -32 0
v -45 -32 0
v -46 -33 0
v -47 -33 0
v -47 -32 0
v -46 -32 0
v -16 -34 0
v -17 -34 0
v -17 -33 0
v -16 -33 0
v -17 -34 0
v -18 -34 0
v -18 -33 0
v -17 -33 0
v -18 -34 0
v -19 -34 0
v -19 -33 0
v -18 -33 0
v -19 -34 0
v -20 -34 0
v -20 -33 0
v -19 -33 0
v -39 -34 0
v -40 -34 0
v -40 -33 0
v -39 -33 0
v -40 -34 0
v -41 -34 0
v -41 -33 0
v -40 -33 0
v -41 -34 0
v -42 -34 0
v -42 -33 0
v -41 -33 0
v -42 -34 0
v -43 -34 0
v -43 -33 0
v -42 -33 0
v -43 -34 0
v -44 -34 0
v -44 -33 0
v -43 -33 0
v -44 -34 0
v -45 -34 0
v -45 -33 0
v -44 -33 0
v -45 -34 0
v -46 -34 0
v -46 -33 0
v -45 -33 0
v -46 -34 0
v -47 -34 0
v -47 -33 0
v -46 -33 0
v -16 -35 0
v -17 -35 0
v -17 -34 0
v -16 -34 0
v -17 -35 0
v -18 -35 0
v -18 -34 0
v -17 -34 0
v -18 -35 0
v -19 -35 0
v -19 -34 0
v -18 -34 0
v -19 -35 0
v -20 -35 0
v -20 -34 0
v -19 -34 0
v -16 -36 0
v -17 -36 0
v -17 -35 0
v -16 -35 0
v -17 -36 0
v -18 -36 0
v -18 -35 0
v -17 -35 0
v -18 -36 0
v -19 -36 0
v -19 -35 0
v -18 -35 0
v -19 -36 0
v -20 -36 0
v -20 -35 0
v -19 -35 0

# Texture cooridinates (Count = 42)
vt 0.5285714 0.5733333
vt 0.5357143 0.5733333
vt 0.5357143 0.58
vt 0.5285714 0.58
vt 0.6285715 0.6733333
vt 0.6357143 0.6733333
vt 0.6357143 0.68
vt 0.6285715 0.68
vt 0.6428571 0.6733333
vt 0.6428571 0.68
vt 0.65 0.6733333
vt 0.65 0.68
vt 0.6571429 0.6733333
vt 0.6571429 0.68
vt 0.6285715 0.6666666
vt 0.6357143 0.6666666
vt 0.6428571 0.6666666
vt 0.65 0.6666666
vt 0.6571429 0.6666666
vt 0.6285715 0.66
vt 0.6357143 0.66
vt 0.6428571 0.66
vt 0.65 0.66
vt 0.6571429 0.66
vt 0.5285714 0.5666667
vt 0.5357143 0.5666667
vt 0.1142857 0.8466667
vt 0.1214286 0.8466667
vt 0.1214286 0.8533334
vt 0.1142857 0.8533334
vt 0.1285714 0.8466667
vt 0.1285714 0.8533334
vt 0.1357143 0.8466667
vt 0.1357143 0.8533334
vt 0.1142857 0.84
vt 0.1214286 0.84
vt 0.1285714 0.84
vt 0.1357143 0.84
vt 0.1142857 0.8333333
vt 0.1214286 0.8333333
vt 0.1285714 0.8333333
vt 0.1357143 0.8333333

# Normal
vn 0 0 -1

# Mesh description
g onePerfectVillage_mesh_0007

# Faces
f 1/1/1 2/2/1 3/3/1 4/4/1
f 5/5/1 6/6/1 7/7/1 8/8/1
f 9/6/1 10/9/1 11/10/1 12/7/1
f 13/9/1 14/11/1 15/12/1 16/10/1
f 17/1/1 18/2/1 19/3/1 20/4/1
f 21/11/1 22/13/1 23/14/1 24/12/1
f 25/15/1 26/16/1 27/6/1 28/5/1
f 29/16/1 30/17/1 31/9/1 32/6/1
f 33/17/1 34/18/1 35/11/1 36/9/1
f 37/11/1 38/13/1 39/14/1 40/12/1
f 41/1/1 42/2/1 43/3/1 44/4/1
f 45/18/1 46/19/1 47/13/1 48/11/1
f 49/20/1 50/21/1 51/16/1 52/15/1
f 53/21/1 54/22/1 55/17/1 56/16/1
f 57/22/1 58/23/1 59/18/1 60/17/1
f 61/18/1 62/19/1 63/13/1 64/11/1
f 65/1/1 66/2/1 67/3/1 68/4/1
f 69/23/1 70/24/1 71/19/1 72/18/1
f 73/23/1 74/24/1 75/19/1 76/18/1
f 77/25/1 78/26/1 79/2/1 80/1/1
f 81/25/1 82/26/1 83/2/1 84/1/1
f 85/25/1 86/26/1 87/2/1 88/1/1
f 89/25/1 90/26/1 91/2/1 92/1/1
f 93/25/1 94/26/1 95/2/1 96/1/1
f 97/25/1 98/26/1 99/2/1 100/1/1
f 101/27/1 102/28/1 103/29/1 104/30/1
f 105/28/1 106/31/1 107/32/1 108/29/1
f 109/28/1 110/31/1 111/32/1 112/29/1
f 113/31/1 114/33/1 115/34/1 116/32/1
f 117/27/1 118/28/1 119/29/1 120/30/1
f 121/28/1 122/31/1 123/32/1 124/29/1
f 125/28/1 126/31/1 127/32/1 128/29/1
f 129/31/1 130/33/1 131/34/1 132/32/1
f 133/35/1 134/36/1 135/28/1 136/27/1
f 137/36/1 138/37/1 139/31/1 140/28/1
f 141/36/1 142/37/1 143/31/1 144/28/1
f 145/37/1 146/38/1 147/33/1 148/31/1
f 149/35/1 150/36/1 151/28/1 152/27/1
f 153/36/1 154/37/1 155/31/1 156/28/1
f 157/36/1 158/37/1 159/31/1 160/28/1
f 161/37/1 162/38/1 163/33/1 164/31/1
f 165/27/1 166/28/1 167/29/1 168/30/1
f 169/28/1 170/31/1 171/32/1 172/29/1
f 173/28/1 174/31/1 175/32/1 176/29/1
f 177/31/1 178/33/1 179/34/1 180/32/1
f 181/39/1 182/40/1 183/36/1 184/35/1
f 185/40/1 186/41/1 187/37/1 188/36/1
f 189/40/1 190/41/1 191/37/1 192/36/1
f 193/41/1 194/42/1 195/38/1 196/37/1
f 197/39/1 198/40/1 199/36/1 200/35/1
f 201/40/1 202/41/1 203/37/1 204/36/1
f 205/40/1 206/41/1 207/37/1 208/36/1
f 209/41/1 210/42/1 211/38/1 212/37/1
f 213/35/1 214/36/1 215/28/1 216/27/1
f 217/36/1 218/37/1 219/31/1 220/28/1
f 221/36/1 222/37/1 223/31/1 224/28/1
f 225/37/1 226/38/1 227/33/1 228/31/1
f 229/39/1 230/40/1 231/36/1 232/35/1
f 233/40/1 234/41/1 235/37/1 236/36/1
f 237/40/1 238/41/1 239/37/1 240/36/1
f 241/41/1 242/42/1 243/38/1 244/37/1

