# Tiled2Unity generated file. Do not modify by hand.
# Wavefront file for 'onePerfectVillage_mesh_0010.obj'

# Vertices (Count = 112)
v -21 -18 0
v -22 -18 0
v -22 -17 0
v -21 -17 0
v -22 -18 0
v -23 -18 0
v -23 -17 0
v -22 -17 0
v -23 -18 0
v -24 -18 0
v -24 -17 0
v -23 -17 0
v -7 -20 0
v -8 -20 0
v -8 -19 0
v -7 -19 0
v -8 -20 0
v -9 -20 0
v -9 -19 0
v -8 -19 0
v -9 -20 0
v -10 -20 0
v -10 -19 0
v -9 -19 0
v -19 -36 0
v -20 -36 0
v -20 -35 0
v -19 -35 0
v -20 -36 0
v -21 -36 0
v -21 -35 0
v -20 -35 0
v -21 -36 0
v -22 -36 0
v -22 -35 0
v -21 -35 0
v -22 -36 0
v -23 -36 0
v -23 -35 0
v -22 -35 0
v -23 -36 0
v -24 -36 0
v -24 -35 0
v -23 -35 0
v -43 -41 0
v -44 -41 0
v -44 -40 0
v -43 -40 0
v -44 -41 0
v -45 -41 0
v -45 -40 0
v -44 -40 0
v -45 -41 0
v -46 -41 0
v -46 -40 0
v -45 -40 0
v -46 -41 0
v -47 -41 0
v -47 -40 0
v -46 -40 0
v -47 -41 0
v -48 -41 0
v -48 -40 0
v -47 -40 0
v -48 -41 0
v -49 -41 0
v -49 -40 0
v -48 -40 0
v -49 -41 0
v -50 -41 0
v -50 -40 0
v -49 -40 0
v -31 -47 0
v -32 -47 0
v -32 -46 0
v -31 -46 0
v -32 -47 0
v -33 -47 0
v -33 -46 0
v -32 -46 0
v -33 -47 0
v -34 -47 0
v -34 -46 0
v -33 -46 0
v -34 -47 0
v -35 -47 0
v -35 -46 0
v -34 -46 0
v -35 -47 0
v -36 -47 0
v -36 -46 0
v -35 -46 0
v -39 -47 0
v -40 -47 0
v -40 -46 0
v -39 -46 0
v -40 -47 0
v -41 -47 0
v -41 -46 0
v -40 -46 0
v -41 -47 0
v -42 -47 0
v -42 -46 0
v -41 -46 0
v -42 -47 0
v -43 -47 0
v -43 -46 0
v -42 -46 0
v -43 -47 0
v -44 -47 0
v -44 -46 0
v -43 -46 0

# Texture cooridinates (Count = 20)
vt 0.02857143 0.9933333
vt 0.03571429 0.9933333
vt 0.03571429 1
vt 0.02857143 1
vt 0.04285714 0.9933333
vt 0.04285714 1
vt 0.05 0.9933333
vt 0.05 1
vt 0.7214286 0.9933333
vt 0.7285714 0.9933333
vt 0.7285714 1
vt 0.7214286 1
vt 0.7357143 0.9933333
vt 0.7357143 1
vt 0.7428572 0.9933333
vt 0.7428572 1
vt 0.75 0.9933333
vt 0.75 1
vt 0.7571428 0.9933333
vt 0.7571428 1

# Normal
vn 0 0 -1

# Mesh description
g onePerfectVillage_mesh_0010

# Faces
f 1/1/1 2/2/1 3/3/1 4/4/1
f 5/2/1 6/5/1 7/6/1 8/3/1
f 9/5/1 10/7/1 11/8/1 12/6/1
f 13/1/1 14/2/1 15/3/1 16/4/1
f 17/2/1 18/5/1 19/6/1 20/3/1
f 21/5/1 22/7/1 23/8/1 24/6/1
f 25/9/1 26/10/1 27/11/1 28/12/1
f 29/10/1 30/13/1 31/14/1 32/11/1
f 33/13/1 34/15/1 35/16/1 36/14/1
f 37/15/1 38/17/1 39/18/1 40/16/1
f 41/17/1 42/19/1 43/20/1 44/18/1
f 45/9/1 46/10/1 47/11/1 48/12/1
f 49/10/1 50/13/1 51/14/1 52/11/1
f 53/13/1 54/15/1 55/16/1 56/14/1
f 57/15/1 58/17/1 59/18/1 60/16/1
f 61/17/1 62/19/1 63/20/1 64/18/1
f 65/10/1 66/13/1 67/14/1 68/11/1
f 69/13/1 70/15/1 71/16/1 72/14/1
f 73/9/1 74/10/1 75/11/1 76/12/1
f 77/10/1 78/13/1 79/14/1 80/11/1
f 81/13/1 82/15/1 83/16/1 84/14/1
f 85/15/1 86/17/1 87/18/1 88/16/1
f 89/17/1 90/19/1 91/20/1 92/18/1
f 93/9/1 94/10/1 95/11/1 96/12/1
f 97/10/1 98/13/1 99/14/1 100/11/1
f 101/13/1 102/15/1 103/16/1 104/14/1
f 105/15/1 106/17/1 107/18/1 108/16/1
f 109/17/1 110/19/1 111/20/1 112/18/1

