# Tiled2Unity generated file. Do not modify by hand.
# Wavefront file for 'onePerfectVillage_mesh_0009.obj'

# Vertices (Count = 408)
v -7 -11 0
v -8 -11 0
v -8 -10 0
v -7 -10 0
v -7 -12 0
v -8 -12 0
v -8 -11 0
v -7 -11 0
v -7 -13 0
v -8 -13 0
v -8 -12 0
v -7 -12 0
v -7 -14 0
v -8 -14 0
v -8 -13 0
v -7 -13 0
v -7 -15 0
v -8 -15 0
v -8 -14 0
v -7 -14 0
v -7 -16 0
v -8 -16 0
v -8 -15 0
v -7 -15 0
v -7 -17 0
v -8 -17 0
v -8 -16 0
v -7 -16 0
v -7 -18 0
v -8 -18 0
v -8 -17 0
v -7 -17 0
v -7 -19 0
v -8 -19 0
v -8 -18 0
v -7 -18 0
v -7 -20 0
v -8 -20 0
v -8 -19 0
v -7 -19 0
v -21 -20 0
v -22 -20 0
v -22 -19 0
v -21 -19 0
v -22 -20 0
v -23 -20 0
v -23 -19 0
v -22 -19 0
v -23 -20 0
v -24 -20 0
v -24 -19 0
v -23 -19 0
v -7 -21 0
v -8 -21 0
v -8 -20 0
v -7 -20 0
v -21 -21 0
v -22 -21 0
v -22 -20 0
v -21 -20 0
v -22 -21 0
v -23 -21 0
v -23 -20 0
v -22 -20 0
v -23 -21 0
v -24 -21 0
v -24 -20 0
v -23 -20 0
v -7 -22 0
v -8 -22 0
v -8 -21 0
v -7 -21 0
v -21 -22 0
v -22 -22 0
v -22 -21 0
v -21 -21 0
v -22 -22 0
v -23 -22 0
v -23 -21 0
v -22 -21 0
v -23 -22 0
v -24 -22 0
v -24 -21 0
v -23 -21 0
v -15 -24 0
v -16 -24 0
v -16 -23 0
v -15 -23 0
v -15 -25 0
v -16 -25 0
v -16 -24 0
v -15 -24 0
v -15 -26 0
v -16 -26 0
v -16 -25 0
v -15 -25 0
v -15 -27 0
v -16 -27 0
v -16 -26 0
v -15 -26 0
v -15 -28 0
v -16 -28 0
v -16 -27 0
v -15 -27 0
v -15 -29 0
v -16 -29 0
v -16 -28 0
v -15 -28 0
v -15 -30 0
v -16 -30 0
v -16 -29 0
v -15 -29 0
v -15 -31 0
v -16 -31 0
v -16 -30 0
v -15 -30 0
v -15 -32 0
v -16 -32 0
v -16 -31 0
v -15 -31 0
v -15 -33 0
v -16 -33 0
v -16 -32 0
v -15 -32 0
v -15 -34 0
v -16 -34 0
v -16 -33 0
v -15 -33 0
v -15 -35 0
v -16 -35 0
v -16 -34 0
v -15 -34 0
v -15 -36 0
v -16 -36 0
v -16 -35 0
v -15 -35 0
v -16 -36 0
v -17 -36 0
v -17 -35 0
v -16 -35 0
v -17 -36 0
v -18 -36 0
v -18 -35 0
v -17 -35 0
v -18 -36 0
v -19 -36 0
v -19 -35 0
v -18 -35 0
v -19 -36 0
v -20 -36 0
v -20 -35 0
v -19 -35 0
v -20 -36 0
v -21 -36 0
v -21 -35 0
v -20 -35 0
v -21 -36 0
v -22 -36 0
v -22 -35 0
v -21 -35 0
v -22 -36 0
v -23 -36 0
v -23 -35 0
v -22 -35 0
v -23 -36 0
v -24 -36 0
v -24 -35 0
v -23 -35 0
v -16 -37 0
v -17 -37 0
v -17 -36 0
v -16 -36 0
v -17 -37 0
v -18 -37 0
v -18 -36 0
v -17 -36 0
v -18 -37 0
v -19 -37 0
v -19 -36 0
v -18 -36 0
v -19 -37 0
v -20 -37 0
v -20 -36 0
v -19 -36 0
v -20 -37 0
v -21 -37 0
v -21 -36 0
v -20 -36 0
v -21 -37 0
v -22 -37 0
v -22 -36 0
v -21 -36 0
v -22 -37 0
v -23 -37 0
v -23 -36 0
v -22 -36 0
v -23 -37 0
v -24 -37 0
v -24 -36 0
v -23 -36 0
v -23 -38 0
v -24 -38 0
v -24 -37 0
v -23 -37 0
v -23 -39 0
v -24 -39 0
v -24 -38 0
v -23 -38 0
v -23 -40 0
v -24 -40 0
v -24 -39 0
v -23 -39 0
v -23 -41 0
v -24 -41 0
v -24 -40 0
v -23 -40 0
v -23 -42 0
v -24 -42 0
v -24 -41 0
v -23 -41 0
v -43 -42 0
v -44 -42 0
v -44 -41 0
v -43 -41 0
v -44 -42 0
v -45 -42 0
v -45 -41 0
v -44 -41 0
v -45 -42 0
v -46 -42 0
v -46 -41 0
v -45 -41 0
v -46 -42 0
v -47 -42 0
v -47 -41 0
v -46 -41 0
v -47 -42 0
v -48 -42 0
v -48 -41 0
v -47 -41 0
v -23 -43 0
v -24 -43 0
v -24 -42 0
v -23 -42 0
v -43 -43 0
v -44 -43 0
v -44 -42 0
v -43 -42 0
v -44 -43 0
v -45 -43 0
v -45 -42 0
v -44 -42 0
v -47 -43 0
v -48 -43 0
v -48 -42 0
v -47 -42 0
v -23 -44 0
v -24 -44 0
v -24 -43 0
v -23 -43 0
v -43 -44 0
v -44 -44 0
v -44 -43 0
v -43 -43 0
v -44 -44 0
v -45 -44 0
v -45 -43 0
v -44 -43 0
v -23 -45 0
v -24 -45 0
v -24 -44 0
v -23 -44 0
v -43 -45 0
v -44 -45 0
v -44 -44 0
v -43 -44 0
v -44 -45 0
v -45 -45 0
v -45 -44 0
v -44 -44 0
v -23 -46 0
v -24 -46 0
v -24 -45 0
v -23 -45 0
v -43 -46 0
v -44 -46 0
v -44 -45 0
v -43 -45 0
v -44 -46 0
v -45 -46 0
v -45 -45 0
v -44 -45 0
v -23 -47 0
v -24 -47 0
v -24 -46 0
v -23 -46 0
v -27 -47 0
v -28 -47 0
v -28 -46 0
v -27 -46 0
v -28 -47 0
v -29 -47 0
v -29 -46 0
v -28 -46 0
v -29 -47 0
v -30 -47 0
v -30 -46 0
v -29 -46 0
v -30 -47 0
v -31 -47 0
v -31 -46 0
v -30 -46 0
v -31 -47 0
v -32 -47 0
v -32 -46 0
v -31 -46 0
v -35 -47 0
v -36 -47 0
v -36 -46 0
v -35 -46 0
v -36 -47 0
v -37 -47 0
v -37 -46 0
v -36 -46 0
v -37 -47 0
v -38 -47 0
v -38 -46 0
v -37 -46 0
v -38 -47 0
v -39 -47 0
v -39 -46 0
v -38 -46 0
v -39 -47 0
v -40 -47 0
v -40 -46 0
v -39 -46 0
v -43 -47 0
v -44 -47 0
v -44 -46 0
v -43 -46 0
v -44 -47 0
v -45 -47 0
v -45 -46 0
v -44 -46 0
v -23 -48 0
v -24 -48 0
v -24 -47 0
v -23 -47 0
v -27 -48 0
v -28 -48 0
v -28 -47 0
v -27 -47 0
v -28 -48 0
v -29 -48 0
v -29 -47 0
v -28 -47 0
v -29 -48 0
v -30 -48 0
v -30 -47 0
v -29 -47 0
v -30 -48 0
v -31 -48 0
v -31 -47 0
v -30 -47 0
v -31 -48 0
v -32 -48 0
v -32 -47 0
v -31 -47 0
v -35 -48 0
v -36 -48 0
v -36 -47 0
v -35 -47 0
v -36 -48 0
v -37 -48 0
v -37 -47 0
v -36 -47 0
v -37 -48 0
v -38 -48 0
v -38 -47 0
v -37 -47 0
v -38 -48 0
v -39 -48 0
v -39 -47 0
v -38 -47 0
v -39 -48 0
v -40 -48 0
v -40 -47 0
v -39 -47 0
v -43 -48 0
v -44 -48 0
v -44 -47 0
v -43 -47 0
v -44 -48 0
v -45 -48 0
v -45 -47 0
v -44 -47 0
v -23 -49 0
v -24 -49 0
v -24 -48 0
v -23 -48 0
v -27 -49 0
v -28 -49 0
v -28 -48 0
v -27 -48 0
v -27 -50 0
v -28 -50 0
v -28 -49 0
v -27 -49 0

# Texture cooridinates (Count = 59)
vt 0.75 0.9666666
vt 0.7571428 0.9666666
vt 0.7571428 0.9733334
vt 0.75 0.9733334
vt 0.75 0.96
vt 0.7571428 0.96
vt 0.05 0.9933333
vt 0.05714286 0.9933333
vt 0.05714286 1
vt 0.05 1
vt 0.06428572 0.9933333
vt 0.06428572 1
vt 0.07142857 0.9933333
vt 0.07142857 1
vt 0.75 0.98
vt 0.7571428 0.98
vt 0.7571428 0.9866667
vt 0.75 0.9866667
vt 0.05 0.9866667
vt 0.05714286 0.9866667
vt 0.06428572 0.9866667
vt 0.07142857 0.9866667
vt 0.05 0.98
vt 0.05714286 0.98
vt 0.06428572 0.98
vt 0.07142857 0.98
vt 0.7857143 0.9933333
vt 0.7928572 0.9933333
vt 0.7928572 1
vt 0.7857143 1
vt 0.7285714 0.9933333
vt 0.7357143 0.9933333
vt 0.7357143 1
vt 0.7285714 1
vt 0.7428572 0.9933333
vt 0.7428572 1
vt 0.75 0.9933333
vt 0.75 1
vt 0.7214286 0.9933333
vt 0.7214286 1
vt 0.7571428 0.9933333
vt 0.7571428 1
vt 0.7285714 0.98
vt 0.7357143 0.98
vt 0.7357143 0.9866667
vt 0.7285714 0.9866667
vt 0.7428572 0.98
vt 0.7428572 0.9866667
vt 0.7214286 0.98
vt 0.7214286 0.9866667
vt 0.7214286 0.9666666
vt 0.7285714 0.9666666
vt 0.7285714 0.9733334
vt 0.7214286 0.9733334
vt 0.7357143 0.9666666
vt 0.7357143 0.9733334
vt 0.7214286 0.96
vt 0.7285714 0.96
vt 0.7357143 0.96

# Normal
vn 0 0 -1

# Mesh description
g onePerfectVillage_mesh_0009

# Faces
f 1/1/1 2/2/1 3/3/1 4/4/1
f 5/5/1 6/6/1 7/2/1 8/1/1
f 9/1/1 10/2/1 11/3/1 12/4/1
f 13/5/1 14/6/1 15/2/1 16/1/1
f 17/1/1 18/2/1 19/3/1 20/4/1
f 21/5/1 22/6/1 23/2/1 24/1/1
f 25/1/1 26/2/1 27/3/1 28/4/1
f 29/5/1 30/6/1 31/2/1 32/1/1
f 33/1/1 34/2/1 35/3/1 36/4/1
f 37/5/1 38/6/1 39/2/1 40/1/1
f 41/7/1 42/8/1 43/9/1 44/10/1
f 45/8/1 46/11/1 47/12/1 48/9/1
f 49/11/1 50/13/1 51/14/1 52/12/1
f 53/15/1 54/16/1 55/17/1 56/18/1
f 57/19/1 58/20/1 59/8/1 60/7/1
f 61/20/1 62/21/1 63/11/1 64/8/1
f 65/21/1 66/22/1 67/13/1 68/11/1
f 69/4/1 70/3/1 71/16/1 72/15/1
f 73/23/1 74/24/1 75/20/1 76/19/1
f 77/24/1 78/25/1 79/21/1 80/20/1
f 81/25/1 82/26/1 83/22/1 84/21/1
f 85/27/1 86/28/1 87/29/1 88/30/1
f 89/1/1 90/2/1 91/3/1 92/4/1
f 93/5/1 94/6/1 95/2/1 96/1/1
f 97/1/1 98/2/1 99/3/1 100/4/1
f 101/5/1 102/6/1 103/2/1 104/1/1
f 105/1/1 106/2/1 107/3/1 108/4/1
f 109/5/1 110/6/1 111/2/1 112/1/1
f 113/1/1 114/2/1 115/3/1 116/4/1
f 117/5/1 118/6/1 119/2/1 120/1/1
f 121/1/1 122/2/1 123/3/1 124/4/1
f 125/5/1 126/6/1 127/2/1 128/1/1
f 129/1/1 130/2/1 131/3/1 132/4/1
f 133/5/1 134/6/1 135/2/1 136/1/1
f 137/31/1 138/32/1 139/33/1 140/34/1
f 141/32/1 142/35/1 143/36/1 144/33/1
f 145/35/1 146/37/1 147/38/1 148/36/1
f 149/39/1 150/31/1 151/34/1 152/40/1
f 153/31/1 154/32/1 155/33/1 156/34/1
f 157/32/1 158/35/1 159/36/1 160/33/1
f 161/35/1 162/37/1 163/38/1 164/36/1
f 165/37/1 166/41/1 167/42/1 168/38/1
f 169/43/1 170/44/1 171/45/1 172/46/1
f 173/44/1 174/47/1 175/48/1 176/45/1
f 177/47/1 178/15/1 179/18/1 180/48/1
f 181/49/1 182/43/1 183/46/1 184/50/1
f 185/43/1 186/44/1 187/45/1 188/46/1
f 189/44/1 190/47/1 191/48/1 192/45/1
f 193/47/1 194/15/1 195/18/1 196/48/1
f 197/15/1 198/16/1 199/17/1 200/18/1
f 201/5/1 202/6/1 203/2/1 204/1/1
f 205/1/1 206/2/1 207/3/1 208/4/1
f 209/5/1 210/6/1 211/2/1 212/1/1
f 213/1/1 214/2/1 215/3/1 216/4/1
f 217/5/1 218/6/1 219/2/1 220/1/1
f 221/39/1 222/31/1 223/34/1 224/40/1
f 225/31/1 226/32/1 227/33/1 228/34/1
f 229/32/1 230/35/1 231/36/1 232/33/1
f 233/35/1 234/37/1 235/38/1 236/36/1
f 237/37/1 238/41/1 239/42/1 240/38/1
f 241/1/1 242/2/1 243/3/1 244/4/1
f 245/51/1 246/52/1 247/53/1 248/54/1
f 249/52/1 250/55/1 251/56/1 252/53/1
f 253/51/1 254/52/1 255/53/1 256/54/1
f 257/5/1 258/6/1 259/2/1 260/1/1
f 261/57/1 262/58/1 263/52/1 264/51/1
f 265/58/1 266/59/1 267/55/1 268/52/1
f 269/1/1 270/2/1 271/3/1 272/4/1
f 273/51/1 274/52/1 275/53/1 276/54/1
f 277/52/1 278/55/1 279/56/1 280/53/1
f 281/5/1 282/6/1 283/2/1 284/1/1
f 285/57/1 286/58/1 287/52/1 288/51/1
f 289/58/1 290/59/1 291/55/1 292/52/1
f 293/1/1 294/2/1 295/3/1 296/4/1
f 297/39/1 298/31/1 299/34/1 300/40/1
f 301/31/1 302/32/1 303/33/1 304/34/1
f 305/32/1 306/35/1 307/36/1 308/33/1
f 309/35/1 310/37/1 311/38/1 312/36/1
f 313/37/1 314/41/1 315/42/1 316/38/1
f 317/39/1 318/31/1 319/34/1 320/40/1
f 321/31/1 322/32/1 323/33/1 324/34/1
f 325/32/1 326/35/1 327/36/1 328/33/1
f 329/35/1 330/37/1 331/38/1 332/36/1
f 333/37/1 334/41/1 335/42/1 336/38/1
f 337/51/1 338/52/1 339/53/1 340/54/1
f 341/52/1 342/55/1 343/56/1 344/53/1
f 345/5/1 346/6/1 347/2/1 348/1/1
f 349/50/1 350/46/1 351/31/1 352/39/1
f 353/46/1 354/45/1 355/32/1 356/31/1
f 357/45/1 358/48/1 359/35/1 360/32/1
f 361/48/1 362/18/1 363/37/1 364/35/1
f 365/18/1 366/17/1 367/41/1 368/37/1
f 369/50/1 370/46/1 371/31/1 372/39/1
f 373/46/1 374/45/1 375/32/1 376/31/1
f 377/45/1 378/48/1 379/35/1 380/32/1
f 381/48/1 382/18/1 383/37/1 384/35/1
f 385/18/1 386/17/1 387/41/1 388/37/1
f 389/57/1 390/58/1 391/52/1 392/51/1
f 393/58/1 394/59/1 395/55/1 396/52/1
f 397/15/1 398/16/1 399/17/1 400/18/1
f 401/51/1 402/52/1 403/53/1 404/54/1
f 405/57/1 406/58/1 407/52/1 408/51/1

