# Tiled2Unity generated file. Do not modify by hand.
# Wavefront file for 'first_house_mesh_0009.obj'

# Vertices (Count = 92)
v -3 -4 0
v -4 -4 0
v -4 -3 0
v -3 -3 0
v -4 -4 0
v -5 -4 0
v -5 -3 0
v -4 -3 0
v -9 -4 0
v -10 -4 0
v -10 -3 0
v -9 -3 0
v -10 -4 0
v -11 -4 0
v -11 -3 0
v -10 -3 0
v -3 -5 0
v -4 -5 0
v -4 -4 0
v -3 -4 0
v -4 -5 0
v -5 -5 0
v -5 -4 0
v -4 -4 0
v -9 -5 0
v -10 -5 0
v -10 -4 0
v -9 -4 0
v -10 -5 0
v -11 -5 0
v -11 -4 0
v -10 -4 0
v -10 -8 0
v -11 -8 0
v -11 -7 0
v -10 -7 0
v -11 -8 0
v -12 -8 0
v -12 -7 0
v -11 -7 0
v -10 -9 0
v -11 -9 0
v -11 -8 0
v -10 -8 0
v -11 -9 0
v -12 -9 0
v -12 -8 0
v -11 -8 0
v -16 -9 0
v -17 -9 0
v -17 -8 0
v -16 -8 0
v -17 -9 0
v -18 -9 0
v -18 -8 0
v -17 -8 0
v -10 -10 0
v -11 -10 0
v -11 -9 0
v -10 -9 0
v -11 -10 0
v -12 -10 0
v -12 -9 0
v -11 -9 0
v -16 -10 0
v -17 -10 0
v -17 -9 0
v -16 -9 0
v -17 -10 0
v -18 -10 0
v -18 -9 0
v -17 -9 0
v -16 -11 0
v -17 -11 0
v -17 -10 0
v -16 -10 0
v -17 -11 0
v -18 -11 0
v -18 -10 0
v -17 -10 0
v -12 -14 0
v -13 -14 0
v -13 -13 0
v -12 -13 0
v -12 -15 0
v -13 -15 0
v -13 -14 0
v -12 -14 0
v -16 -16 0
v -17 -16 0
v -17 -15 0
v -16 -15 0

# Texture cooridinates (Count = 49)
vt 0.2307692 0.6842105
vt 0.2564103 0.6842105
vt 0.2564103 0.7368421
vt 0.2307692 0.7368421
vt 0.3589744 0.7894737
vt 0.3846154 0.7894737
vt 0.3846154 0.8421053
vt 0.3589744 0.8421053
vt 0.3076923 0.7894737
vt 0.3333333 0.7894737
vt 0.3333333 0.8421053
vt 0.3076923 0.8421053
vt 0.2307692 0.6315789
vt 0.2564103 0.6315789
vt 0.3589744 0.7368421
vt 0.3846154 0.7368421
vt 0.3076923 0.7368421
vt 0.3333333 0.7368421
vt 0.1282051 0.2631579
vt 0.1538462 0.2631579
vt 0.1538462 0.3157895
vt 0.1282051 0.3157895
vt 0.1794872 0.2631579
vt 0.1794872 0.3157895
vt 0.1282051 0.2105263
vt 0.1538462 0.2105263
vt 0.1794872 0.2105263
vt 0.1538462 0.1052632
vt 0.1794872 0.1052632
vt 0.1794872 0.1578947
vt 0.1538462 0.1578947
vt 0.2051282 0.1052632
vt 0.2051282 0.1578947
vt 0.1282051 0.1578947
vt 0.1538462 0.05263156
vt 0.1794872 0.05263156
vt 0.2051282 0.05263156
vt 0.1538462 0
vt 0.1794872 0
vt 0.2051282 0
vt 0.3589744 0.2631579
vt 0.3846154 0.2631579
vt 0.3846154 0.3157895
vt 0.3589744 0.3157895
vt 0.3589744 0.2105263
vt 0.3846154 0.2105263
vt 0.4102564 0.3157895
vt 0.4102564 0.3684211
vt 0.3846154 0.3684211

# Normal
vn 0 0 -1

# Mesh description
g first_house_mesh_0009

# Faces
f 1/1/1 2/2/1 3/3/1 4/4/1
f 5/5/1 6/6/1 7/7/1 8/8/1
f 9/9/1 10/10/1 11/11/1 12/12/1
f 13/10/1 14/5/1 15/8/1 16/11/1
f 17/13/1 18/14/1 19/2/1 20/1/1
f 21/15/1 22/16/1 23/6/1 24/5/1
f 25/17/1 26/18/1 27/10/1 28/9/1
f 29/18/1 30/15/1 31/5/1 32/10/1
f 33/19/1 34/20/1 35/21/1 36/22/1
f 37/20/1 38/23/1 39/24/1 40/21/1
f 41/25/1 42/26/1 43/20/1 44/19/1
f 45/26/1 46/27/1 47/23/1 48/20/1
f 49/28/1 50/29/1 51/30/1 52/31/1
f 53/29/1 54/32/1 55/33/1 56/30/1
f 57/34/1 58/31/1 59/26/1 60/25/1
f 61/31/1 62/30/1 63/27/1 64/26/1
f 65/35/1 66/36/1 67/29/1 68/28/1
f 69/36/1 70/37/1 71/32/1 72/29/1
f 73/38/1 74/39/1 75/36/1 76/35/1
f 77/39/1 78/40/1 79/37/1 80/36/1
f 81/41/1 82/42/1 83/43/1 84/44/1
f 85/45/1 86/46/1 87/42/1 88/41/1
f 89/43/1 90/47/1 91/48/1 92/49/1

