# Tiled2Unity generated file. Do not modify by hand.
# Wavefront file for 'first_house_mesh_0005.obj'

# Vertices (Count = 32)
v -13 -9 0
v -14 -9 0
v -14 -8 0
v -13 -8 0
v -14 -9 0
v -15 -9 0
v -15 -8 0
v -14 -8 0
v -13 -10 0
v -14 -10 0
v -14 -9 0
v -13 -9 0
v -14 -10 0
v -15 -10 0
v -15 -9 0
v -14 -9 0
v -13 -11 0
v -14 -11 0
v -14 -10 0
v -13 -10 0
v -14 -11 0
v -15 -11 0
v -15 -10 0
v -14 -10 0
v -13 -12 0
v -14 -12 0
v -14 -11 0
v -13 -11 0
v -14 -12 0
v -15 -12 0
v -15 -11 0
v -14 -11 0

# Texture cooridinates (Count = 17)
vt 0.8333333 0.9166667
vt 0.875 0.9166667
vt 0.875 1
vt 0.8333333 1
vt 0.9166667 0.9166667
vt 0.9166667 1
vt 0.8333333 0.6666666
vt 0.875 0.6666666
vt 0.875 0.75
vt 0.8333333 0.75
vt 0.9583333 0.6666666
vt 1 0.6666666
vt 1 0.75
vt 0.9583333 0.75
vt 0.8333333 0.8333333
vt 0.875 0.8333333
vt 0.9166667 0.8333333

# Normal
vn 0 0 -1

# Mesh description
g first_house_mesh_0005

# Faces
f 1/1/1 2/2/1 3/3/1 4/4/1
f 5/2/1 6/5/1 7/6/1 8/3/1
f 9/7/1 10/8/1 11/9/1 12/10/1
f 13/11/1 14/12/1 15/13/1 16/14/1
f 17/7/1 18/8/1 19/9/1 20/10/1
f 21/11/1 22/12/1 23/13/1 24/14/1
f 25/15/1 26/16/1 27/2/1 28/1/1
f 29/16/1 30/17/1 31/5/1 32/2/1

