# Tiled2Unity generated file. Do not modify by hand.
# Wavefront file for 'first_house_mesh_0002.obj'

# Vertices (Count = 140)
v -17 -4 0
v -18 -4 0
v -18 -3 0
v -17 -3 0
v -2 -5 0
v -3 -5 0
v -3 -4 0
v -2 -4 0
v -2 -6 0
v -3 -6 0
v -3 -5 0
v -2 -5 0
v -4 -11 0
v -5 -11 0
v -5 -10 0
v -4 -10 0
v -7 -11 0
v -8 -11 0
v -8 -10 0
v -7 -10 0
v -9 -11 0
v -10 -11 0
v -10 -10 0
v -9 -10 0
v -10 -11 0
v -11 -11 0
v -11 -10 0
v -10 -10 0
v -3 -12 0
v -4 -12 0
v -4 -11 0
v -3 -11 0
v -4 -12 0
v -5 -12 0
v -5 -11 0
v -4 -11 0
v -7 -12 0
v -8 -12 0
v -8 -11 0
v -7 -11 0
v -8 -12 0
v -9 -12 0
v -9 -11 0
v -8 -11 0
v -9 -12 0
v -10 -12 0
v -10 -11 0
v -9 -11 0
v -10 -12 0
v -11 -12 0
v -11 -11 0
v -10 -11 0
v -16 -15 0
v -17 -15 0
v -17 -14 0
v -16 -14 0
v -11 -17 0
v -12 -17 0
v -12 -16 0
v -11 -16 0
v -12 -17 0
v -13 -17 0
v -13 -16 0
v -12 -16 0
v -13 -17 0
v -14 -17 0
v -14 -16 0
v -13 -16 0
v -14 -17 0
v -15 -17 0
v -15 -16 0
v -14 -16 0
v -15 -17 0
v -16 -17 0
v -16 -16 0
v -15 -16 0
v -16 -17 0
v -17 -17 0
v -17 -16 0
v -16 -16 0
v -17 -17 0
v -18 -17 0
v -18 -16 0
v -17 -16 0
v -11 -18 0
v -12 -18 0
v -12 -17 0
v -11 -17 0
v -12 -18 0
v -13 -18 0
v -13 -17 0
v -12 -17 0
v -13 -18 0
v -14 -18 0
v -14 -17 0
v -13 -17 0
v -14 -18 0
v -15 -18 0
v -15 -17 0
v -14 -17 0
v -15 -18 0
v -16 -18 0
v -16 -17 0
v -15 -17 0
v -16 -18 0
v -17 -18 0
v -17 -17 0
v -16 -17 0
v -17 -18 0
v -18 -18 0
v -18 -17 0
v -17 -17 0
v -11 -19 0
v -12 -19 0
v -12 -18 0
v -11 -18 0
v -12 -19 0
v -13 -19 0
v -13 -18 0
v -12 -18 0
v -13 -19 0
v -14 -19 0
v -14 -18 0
v -13 -18 0
v -14 -19 0
v -15 -19 0
v -15 -18 0
v -14 -18 0
v -15 -19 0
v -16 -19 0
v -16 -18 0
v -15 -18 0
v -16 -19 0
v -17 -19 0
v -17 -18 0
v -16 -18 0
v -17 -19 0
v -18 -19 0
v -18 -18 0
v -17 -18 0

# Texture cooridinates (Count = 31)
vt 0.1538462 0.7894737
vt 0.1794872 0.7894737
vt 0.1794872 0.8421053
vt 0.1538462 0.8421053
vt 0.2307692 0.8947368
vt 0.2564103 0.8947368
vt 0.2564103 0.9473684
vt 0.2307692 0.9473684
vt 0.2307692 0.8421053
vt 0.2564103 0.8421053
vt 0.2307692 0.6842105
vt 0.2564103 0.6842105
vt 0.2564103 0.7368421
vt 0.2307692 0.7368421
vt 0.2051282 0.6842105
vt 0.2051282 0.7368421
vt 0.3846154 0.8947368
vt 0.4102564 0.8947368
vt 0.4102564 0.9473684
vt 0.3846154 0.9473684
vt 0.1794872 0.9473684
vt 0.2051282 0.9473684
vt 0.2051282 1
vt 0.1794872 1
vt 0.3846154 0.3684211
vt 0.4102564 0.3684211
vt 0.4102564 0.4210526
vt 0.3846154 0.4210526
vt 0.1794872 0.8947368
vt 0.2051282 0.8947368
vt 0.2051282 0.8421053

# Normal
vn 0 0 -1

# Mesh description
g first_house_mesh_0002

# Faces
f 1/1/1 2/2/1 3/3/1 4/4/1
f 5/5/1 6/6/1 7/7/1 8/8/1
f 9/9/1 10/10/1 11/6/1 12/5/1
f 13/11/1 14/12/1 15/13/1 16/14/1
f 17/15/1 18/11/1 19/14/1 20/16/1
f 21/15/1 22/11/1 23/14/1 24/16/1
f 25/11/1 26/12/1 27/13/1 28/14/1
f 29/17/1 30/18/1 31/19/1 32/20/1
f 33/17/1 34/18/1 35/19/1 36/20/1
f 37/21/1 38/22/1 39/23/1 40/24/1
f 41/21/1 42/22/1 43/23/1 44/24/1
f 45/21/1 46/22/1 47/23/1 48/24/1
f 49/21/1 50/22/1 51/23/1 52/24/1
f 53/25/1 54/26/1 55/27/1 56/28/1
f 57/21/1 58/22/1 59/23/1 60/24/1
f 61/17/1 62/18/1 63/19/1 64/20/1
f 65/17/1 66/18/1 67/19/1 68/20/1
f 69/17/1 70/18/1 71/19/1 72/20/1
f 73/17/1 74/18/1 75/19/1 76/20/1
f 77/17/1 78/18/1 79/19/1 80/20/1
f 81/21/1 82/22/1 83/23/1 84/24/1
f 85/29/1 86/30/1 87/22/1 88/21/1
f 89/29/1 90/30/1 91/22/1 92/21/1
f 93/29/1 94/30/1 95/22/1 96/21/1
f 97/29/1 98/30/1 99/22/1 100/21/1
f 101/29/1 102/30/1 103/22/1 104/21/1
f 105/29/1 106/30/1 107/22/1 108/21/1
f 109/29/1 110/30/1 111/22/1 112/21/1
f 113/3/1 114/31/1 115/30/1 116/29/1
f 117/3/1 118/31/1 119/30/1 120/29/1
f 121/3/1 122/31/1 123/30/1 124/29/1
f 125/3/1 126/31/1 127/30/1 128/29/1
f 129/3/1 130/31/1 131/30/1 132/29/1
f 133/3/1 134/31/1 135/30/1 136/29/1
f 137/3/1 138/31/1 139/30/1 140/29/1

