# Tiled2Unity generated file. Do not modify by hand.
# Wavefront file for 'first_house_mesh_0011.obj'

# Vertices (Count = 8)
v -14 -13 0
v -15 -13 0
v -15 -12 0
v -14 -12 0
v -14 -14 0
v -15 -14 0
v -15 -13 0
v -14 -13 0

# Texture cooridinates (Count = 6)
vt 0.3642857 0.56
vt 0.3714286 0.56
vt 0.3714286 0.5666667
vt 0.3642857 0.5666667
vt 0.3642857 0.5533333
vt 0.3714286 0.5533333

# Normal
vn 0 0 -1

# Mesh description
g first_house_mesh_0011

# Faces
f 1/1/1 2/2/1 3/3/1 4/4/1
f 5/5/1 6/6/1 7/2/1 8/1/1

